<?xml version="1.0" standalone="no"?>
<!DOCTYPE svg PUBLIC "-//W3C//DTD SVG 1.1//EN"
"http://www.w3.org/Graphics/SVG/1.1/DTD/svg11.dtd">

<svg width="306" height="246" view_box="0 0 306 246"
xmlns="http://www.w3.org/2000/svg"
xmlns:link="http://www.w3.org/1999/xlink">\n\n<desc>Généré par Mocodo 2.3.7 le Thu, 25 Feb 2021 01:21:35</desc>

<rect id="frame" x="0" y="0" width="306" height="246" fill="#ffffbf" stroke="none" stroke-width="0"/>

<!-- Association canBorrow -->
<line x1="157" y1="60" x2="49" y2="60" stroke="#f46d43" stroke-width="2"/>
<text x="94" y="77.0" fill="#4575b4" font-family="Verdana" font-size="12">0,N</text>
<line x1="49" y1="178" x2="49" y2="60" stroke="#f46d43" stroke-width="2"/>
<text x="54.0" y="111" fill="#4575b4" font-family="Verdana" font-size="12">0,N</text>
<g id="association-canBorrow">
	<path d="M 75 35 a 14 14 90 0 1 14 14 V 60 h -80 V 49 a 14 14 90 0 1 14 -14" fill="#fdae61" stroke="#fdae61" stroke-width="0"/>
	<path d="M 89 60.0 v 11 a 14 14 90 0 1 -14 14 H 23 a 14 14 90 0 1 -14 -14 V 60.0 H 80" fill="#fee090" stroke="#fee090" stroke-width="0"/>
	<rect x="9" y="35" width="80" height="50" fill="none" rx="14" stroke="#f46d43" stroke-width="2"/>
	<line x1="9" y1="60" x2="89" y2="60" stroke="#f46d43" stroke-width="1"/>
	<text x="16" y="52.7" fill="#000000" font-family="Verdana" font-size="12">canBorrow</text>
</g>

<!-- Association hasOne -->
<line x1="258" y1="178" x2="157" y2="178" stroke="#f46d43" stroke-width="2"/>
<text x="192" y="195.0" fill="#4575b4" font-family="Verdana" font-size="12">1,N</text>
<line x1="49" y1="178" x2="157" y2="178" stroke="#f46d43" stroke-width="2"/>
<text x="92" y="195.0" fill="#4575b4" font-family="Verdana" font-size="12">1,1</text>
<g id="association-hasOne">
	<path d="M 173 153 a 14 14 90 0 1 14 14 V 178 h -60 V 167 a 14 14 90 0 1 14 -14" fill="#fdae61" stroke="#fdae61" stroke-width="0"/>
	<path d="M 187 178.0 v 11 a 14 14 90 0 1 -14 14 H 141 a 14 14 90 0 1 -14 -14 V 178.0 H 60" fill="#fee090" stroke="#fee090" stroke-width="0"/>
	<rect x="127" y="153" width="60" height="50" fill="none" rx="14" stroke="#f46d43" stroke-width="2"/>
	<line x1="127" y1="178" x2="187" y2="178" stroke="#f46d43" stroke-width="1"/>
	<text x="134" y="170.7" fill="#000000" font-family="Verdana" font-size="12">hasOne</text>
</g>

<!-- Entity CATEGORY -->
<g id="entity-CATEGORY">
	<g id="frame-CATEGORY">
		<rect x="219" y="136" width="78" height="25" fill="#abd9e9" stroke="#abd9e9" stroke-width="0"/>
		<rect x="219" y="161.0" width="78" height="59" fill="#e0f3f8" stroke="#e0f3f8" stroke-width="0"/>
		<rect x="219" y="136" width="78" height="84" fill="none" stroke="#74add1" stroke-width="2"/>
		<line x1="219" y1="161" x2="297" y2="161" stroke="#74add1" stroke-width="1"/>
	</g>
	<text x="224" y="153.7" fill="#000000" font-family="Verdana" font-size="12">CATEGORY</text>
	<text x="224" y="178.8" fill="#000000" font-family="Verdana" font-size="12">id</text>
	<line x1="224" y1="181" x2="236" y2="181" stroke="#000000" stroke-width="1"/>
	<text x="224" y="195.8" fill="#000000" font-family="Verdana" font-size="12">name</text>
</g>

<!-- Entity BOOK -->
<g id="entity-BOOK">
	<g id="frame-BOOK">
		<rect x="11" y="119" width="76" height="25" fill="#abd9e9" stroke="#abd9e9" stroke-width="0"/>
		<rect x="11" y="144.0" width="76" height="93" fill="#e0f3f8" stroke="#e0f3f8" stroke-width="0"/>
		<rect x="11" y="119" width="76" height="118" fill="none" stroke="#74add1" stroke-width="2"/>
		<line x1="11" y1="144" x2="87" y2="144" stroke="#74add1" stroke-width="1"/>
	</g>
	<text x="31" y="136.7" fill="#000000" font-family="Verdana" font-size="12">BOOK</text>
	<text x="16" y="161.7" fill="#000000" font-family="Verdana" font-size="12">id</text>
	<line x1="16" y1="164" x2="28" y2="164" stroke="#000000" stroke-width="1"/>
	<text x="16" y="178.8" fill="#000000" font-family="Verdana" font-size="12">name</text>
	<text x="16" y="195.8" fill="#000000" font-family="Verdana" font-size="12">idUser</text>
	<text x="16" y="212.8" fill="#000000" font-family="Verdana" font-size="12">idCategory</text>
</g>

<!-- Entity USER -->
<g id="entity-USER">
	<g id="frame-USER">
		<rect x="121" y="9" width="72" height="25" fill="#abd9e9" stroke="#abd9e9" stroke-width="0"/>
		<rect x="121" y="34.0" width="72" height="77" fill="#e0f3f8" stroke="#e0f3f8" stroke-width="0"/>
		<rect x="121" y="9" width="72" height="102" fill="none" stroke="#74add1" stroke-width="2"/>
		<line x1="121" y1="34" x2="193" y2="34" stroke="#74add1" stroke-width="1"/>
	</g>
	<text x="140" y="26.7" fill="#000000" font-family="Verdana" font-size="12">USER</text>
	<text x="126" y="51.7" fill="#000000" font-family="Verdana" font-size="12">id</text>
	<line x1="126" y1="54" x2="138" y2="54" stroke="#000000" stroke-width="1"/>
	<text x="126" y="68.8" fill="#000000" font-family="Verdana" font-size="12">username</text>
	<text x="126" y="85.8" fill="#000000" font-family="Verdana" font-size="12">email</text>
	<text x="126" y="102.8" fill="#000000" font-family="Verdana" font-size="12">password</text>
</g>
</svg>